<?xml version="1.0" encoding="UTF-8"?>
<svg width="25px" height="25px" viewBox="0 0 25 25" version="1.1" xmlns="http://www.w3.org/2000/svg" xmlns:xlink="http://www.w3.org/1999/xlink">
    <title>icon-friends-25x25-orange</title>
    <g id="icon-friends-25x25-orange" stroke="none" stroke-width="1" fill="none" fill-rule="evenodd">
        <path d="M18,18 C21.3137085,18 24,20.6862915 24,24 L24,24 L12,24 C12,20.6862915 14.6862915,18 18,18 Z M18,12 C19.6568542,12 21,13.3431458 21,15 C21,16.6568542 19.6568542,18 18,18 C16.3431458,18 15,16.6568542 15,15 C15,13.3431458 16.3431458,12 18,12 Z" id="Combined-Shape-Copy" stroke="#C5F04E" fill="#FF8C00"></path>
        <path d="M7,18 C10.3137085,18 13,20.6862915 13,24 L13,24 L1,24 C1,20.6862915 3.6862915,18 7,18 Z M7.5,12 C9.43299662,12 11,13.3431458 11,15 C11,16.6568542 9.43299662,18 7.5,18 C5.56700338,18 4,16.6568542 4,15 C4,13.3431458 5.56700338,12 7.5,12 Z" id="Combined-Shape-Copy-2" stroke="#C5F04E" fill="#FF8C00"></path>
        <path d="M12.5,7 C14.9852814,7 17,9.01471863 17,11.5 C17,13.1289329 16.1344948,14.5557163 14.8382689,15.3455656 C18.3958288,16.4204545 21,19.8882195 21,24 L21,24 L4,24 C4,19.8882195 6.60417118,16.4204545 10.161424,15.3449173 C8.86550519,14.5557163 8,13.1289329 8,11.5 C8,9.01471863 10.0147186,7 12.5,7 Z" id="Combined-Shape" stroke="#C5F04E" fill="#FF8C00"></path>
    </g>
</svg>