<?xml version="1.0" encoding="UTF-8"?>
<svg width="17px" height="42px" viewBox="0 0 17 42" version="1.1" xmlns="http://www.w3.org/2000/svg" xmlns:xlink="http://www.w3.org/1999/xlink">
    <title>icon PR</title>
    <g id="Page-1" stroke="none" stroke-width="1" fill="none" fill-rule="evenodd">
        <g id="Mobile" transform="translate(-91.000000, -770.000000)">
            <g id="footer" transform="translate(0.000000, 755.000000)">
                <g id="icon-PR" transform="translate(91.000000, 15.000000)">
                    <text id="PR" font-family="Arial-BoldMT, Arial" font-size="9" font-weight="bold" fill="#FF8C00">
                        <tspan x="2.2487793" y="40">PR</tspan>
                    </text>
                    <g id="icon-personal-best">
                        <path d="M0,0 L17,0 L17,9 C17,13.9705627 13.1944204,18 8.5,18 C3.80557963,18 0,13.9705627 0,9 L0,9 L0,0 Z" id="Combined-Shape" fill="#FF8C00"></path>
                        <path d="M8.5,23 C8.15502506,23 7.83583671,23.1159801 7.57422451,23.3118387 C7.20957219,23.5848394 6.95601897,24.0115375 6.89133327,24.5005338 L0.5,24.5000387 L0.5,29.5 L16.5,29.5 L16.5,24.5000387 L10.1086667,24.5005338 C10.043981,24.0115375 9.79042781,23.5848394 9.42577549,23.3118387 C9.16416329,23.1159801 8.84497494,23 8.5,23 Z" id="Combined-Shape" stroke="#FF8C00" stroke-width="1" fill="#FF8C00"></path>
                        <polygon id="Star" fill="#C5F04E" points="8.5 10.8 5.1692169 12.654102 5.80533987 8.72705098 3.11067974 5.94589803 6.83460845 5.37294902 8.5 1.8 10.1653915 5.37294902 13.8893203 5.94589803 11.1946601 8.72705098 11.8307831 12.654102"></polygon>
                        <rect id="Rectangle" stroke="#FF8C00" stroke-width="1" fill="#FF8C00" x="8.15" y="18.2" width="1" height="4.1"></rect>
                    </g>
                </g>
            </g>
        </g>
    </g>
</svg>