<?xml version="1.0" encoding="UTF-8"?>
<svg width="25px" height="25px" viewBox="0 0 25 25" version="1.1" xmlns="http://www.w3.org/2000/svg" xmlns:xlink="http://www.w3.org/1999/xlink">
    <title>icon-chevron-left-25x25-orange</title>
    <g id="icon-chevron-left-25x25-orange" stroke="none" stroke-width="1" fill="none" fill-rule="evenodd">
        <path d="M7.99898838,2.2898893 C8.00100384,2.29188767 8.00301079,2.29389461 8.00500916,2.29591007 L17.3284098,11.6990364 C17.7139799,12.0879036 17.7149264,12.7143076 17.3312495,13.104341 C17.287549,13.1904025 17.2295056,13.270231 17.1583706,13.3419744 L7.83496997,22.7451007 C7.44611181,23.1372841 6.81295257,23.1399797 6.42076923,22.7511215 L6.41474845,22.7451007 L6.28988924,22.6191738 C5.90337025,22.2293497 5.90337025,21.600818 6.28988924,21.2109939 L14.991,12.434 L6.45992842,3.83001695 C6.07340944,3.44019278 6.07340944,2.81166114 6.45992842,2.42183697 L6.58478764,2.29591007 C6.9736458,1.90372673 7.60680504,1.90103113 7.99898838,2.2898893 Z" id="Combined-Shape" fill="#FF8C00" transform="translate(11.809150, 12.520505) scale(-1, 1) translate(-11.809150, -12.520505) "></path>
    </g>
</svg>