<?xml version="1.0" encoding="UTF-8"?>
<svg width="25px" height="25px" viewBox="0 0 25 25" version="1.1" xmlns="http://www.w3.org/2000/svg" xmlns:xlink="http://www.w3.org/1999/xlink">
    <title>icon-fitness-log-25x25-orange-outline</title>
    <g id="icon-fitness-log-25x25-orange-outline" stroke="none" stroke-width="1" fill="none" fill-rule="evenodd">
        <polyline id="Path" stroke="#FF8C00" points="16 21 16 24 1 24 1 4 3.93677583 4 13.1216067 4 16 4 16 13"></polyline>
        <rect id="Rectangle-Copy" fill="#FF8C00" x="3" y="11" width="8" height="1"></rect>
        <rect id="Rectangle-Copy-2" fill="#FF8C00" x="3" y="14" width="7" height="1"></rect>
        <rect id="Rectangle-Copy-3" fill="#FF8C00" x="3" y="17" width="6" height="1"></rect>
        <path d="M8.5,0.5 C8.75456774,0.5 8.98694875,0.595080903 9.16346035,0.751766389 C9.34190045,0.91016377 9.46357036,1.13134773 9.49302847,1.38088622 C11.0102068,2.25153426 12.3202194,3.15917886 13.0433493,3.93186354 L13.0433493,3.93186354 L4.33238553,4.49999786 C3.99596609,4.4998581 3.73772571,4.49269205 3.58368971,4.424462 C4.23382829,3.29524576 5.80684941,2.29451089 7.1814191,1.79608356 C7.53623095,1.13286847 7.6574357,0.91134392 7.83565302,0.752634808 C8.01218427,0.595427204 8.24496186,0.5 8.5,0.5 L8.5,0.5 Z" id="Combined-Shape" stroke="#FF8C00"></path>
        <circle id="Oval-2" stroke="#FF8C00" cx="15" cy="17" r="4.5"></circle>
        <path d="M17.5099299,15.4329435 L14.3208464,17.5893068 L13.1972912,16.095309 L14.3871837,17.5285926 L17.5099299,15.4329435 Z" id="Path-2" stroke="#FF8C00"></path>
    </g>
</svg>