<?xml version="1.0" encoding="UTF-8"?>
<svg width="25px" height="25px" viewBox="0 0 25 25" version="1.1" xmlns="http://www.w3.org/2000/svg" xmlns:xlink="http://www.w3.org/1999/xlink">
    <title>icon-fitness-log-25x25-no-fill</title>
    <g id="icon-fitness-log-25x25-orange" stroke="none" stroke-width="1" fill="none" fill-rule="evenodd">
        <polygon id="Path" stroke="#FF8C00" fill="" points="13.1216067 4 16 4 16 24 1 24 1 4 3.93677583 4"></polygon>
        <rect id="Rectangle-Copy" fill="#FF8C00" x="4" y="11" width="8" height="1"></rect>
        <rect id="Rectangle-Copy-2" fill="#FF8C00" x="4" y="14" width="8" height="1"></rect>
        <rect id="Rectangle-Copy-3" fill="#FF8C00" x="4" y="17" width="8" height="1"></rect>
        <path d="M8.5,0.5 C8.24901887,0.5 8.01958148,0.59239798 7.84421095,0.745160256 C7.66703205,0.899497781 7.54470454,1.11528896 7.20372527,1.7560182 C5.82122401,2.31537819 4.22782681,3.46638393 3.63450698,4.38355188 C3.55713853,4.50314986 3.52439958,4.62294055 3.54550802,4.89501997 C3.69489664,4.97848858 3.95596243,4.98802093 4.29023104,4.98822981 L13.0034618,4.21737105 C12.2884481,3.34315849 10.9862308,2.31163137 9.4929491,1.38021579 C9.46333898,1.13083232 9.34162477,0.909811416 9.1632055,0.751540246 C8.98672524,0.59498912 8.75444522,0.5 8.5,0.5 Z" id="Combined-Shape" stroke="#FF8C00" fill=""></path>
    </g>
</svg>