<?xml version="1.0" encoding="UTF-8"?>
<svg width="43px" height="43px" viewBox="0 0 43 43" version="1.1" xmlns="http://www.w3.org/2000/svg" xmlns:xlink="http://www.w3.org/1999/xlink">
    <title>icon friends</title>
    <g id="Page-1" stroke="none" stroke-width="1" fill="none" fill-rule="evenodd">
        <g id="Mobile" transform="translate(-18.000000, -769.000000)" fill="#FF8C00">
            <g id="footer" transform="translate(0.000000, 755.000000)">
                <g id="icon-friends" transform="translate(19.000000, 15.000000)">
                    <g id="icon-friends-orange" transform="translate(-0.000000, 0.000000)" stroke="#C5F04E">
                        <path d="M31.1742777,8.10810811 C34.3860735,8.10810811 36.9897484,10.711783 36.9897484,13.9235788 C36.9897484,16.3742728 35.4738535,18.4709105 33.3285805,19.3269752 C37.9345433,20.4932556 41.3513514,24.7919109 41.3513514,29.916123 L41.3513514,29.916123 L20.2702703,29.916123 C20.2702703,24.6175768 23.9235241,20.2017165 28.7664662,19.2170584 C26.7562791,18.303227 25.3588071,16.2766014 25.3588071,13.9235788 C25.3588071,10.711783 27.962482,8.10810811 31.1742777,8.10810811 Z" id="Combined-Shape-Copy"></path>
                        <path d="M10.9040075,8.10810811 C14.1158032,8.10810811 16.7194781,10.711783 16.7194781,13.9235788 C16.7194781,16.3742728 15.2035832,18.4709105 13.0583102,19.3269752 C17.664273,20.4932556 21.0810811,24.7919109 21.0810811,29.916123 L21.0810811,29.916123 L0,29.916123 C0,24.6175768 3.65325382,20.2017165 8.4961959,19.2170584 C6.48600887,18.303227 5.08853681,16.2766014 5.08853681,13.9235788 C5.08853681,10.711783 7.69221171,8.10810811 10.9040075,8.10810811 Z" id="Combined-Shape-Copy-2"></path>
                        <path d="M21.0810811,0 C25.5590655,0 29.1891892,3.63012365 29.1891892,8.10810811 C29.1891892,11.5728094 27.0160484,14.5299465 23.958455,15.6908313 C30.6407508,17.0250516 35.6756757,22.9245409 35.6756757,30 L35.6756757,30 L6.48648649,30 C6.48648649,22.9245409 11.5214114,17.0250516 18.2038394,15.6889537 C15.1461137,14.5299465 12.972973,11.5728094 12.972973,8.10810811 C12.972973,3.63012365 16.6030966,0 21.0810811,0 Z" id="Combined-Shape"></path>
                    </g>
                    <text id="FRIENDS" font-family="Arial-BoldMT, Arial" font-size="9" font-weight="bold">
                        <tspan x="1.2487793" y="40">FRIENDS</tspan>
                    </text>
                </g>
            </g>
        </g>
    </g>
</svg>