<?xml version="1.0" encoding="UTF-8"?>
<svg width="18px" height="18px" viewBox="0 0 18 18" version="1.1" xmlns="http://www.w3.org/2000/svg" xmlns:xlink="http://www.w3.org/1999/xlink">
    <title>modality-gymnastics</title>
    <g id="modality-gymnastics" stroke="none" stroke-width="1" fill="none" fill-rule="evenodd">
        <circle id="Oval" stroke="#BA55D3" cx="9" cy="9" r="8.5"></circle>
        <path d="M9.22216797,13.1220703 C9.81136068,13.1220703 10.3932292,13.0105794 10.9677734,12.7875977 C11.5423177,12.5646159 11.980957,12.3066406 12.2836914,12.0136719 L12.2836914,12.0136719 L12.2836914,9.16210938 L9.16845703,9.16210938 L9.16845703,10.3681641 L10.8237305,10.3681641 L10.8237305,11.2763672 C10.6056315,11.445638 10.344401,11.589681 10.0400391,11.7084961 C9.73567708,11.8273112 9.43212891,11.8867188 9.12939453,11.8867188 C8.51741536,11.8867188 8.0226237,11.6743164 7.64501953,11.2495117 C7.26741536,10.824707 7.07861328,10.1875 7.07861328,9.33789062 C7.07861328,8.55013021 7.26497396,7.95605469 7.63769531,7.55566406 C8.01041667,7.15527344 8.51253255,6.95507812 9.14404297,6.95507812 C9.56070964,6.95507812 9.90820312,7.05680339 10.1865234,7.26025391 C10.4648438,7.46370443 10.6544596,7.74121094 10.7553711,8.09277344 L10.7553711,8.09277344 L12.190918,7.82421875 C12.0476888,7.16666667 11.726237,6.65152995 11.2265625,6.27880859 C10.726888,5.90608724 10.0327148,5.71972656 9.14404297,5.71972656 C8.46044922,5.71972656 7.88916016,5.83854167 7.43017578,6.07617188 C6.82796224,6.38541667 6.37060547,6.8297526 6.05810547,7.40917969 C5.74560547,7.98860677 5.58935547,8.65104167 5.58935547,9.39648438 C5.58935547,10.0833333 5.72932943,10.7189128 6.00927734,11.3032227 C6.28922526,11.8875326 6.70751953,12.3367513 7.26416016,12.6508789 C7.82080078,12.9650065 8.47347005,13.1220703 9.22216797,13.1220703 Z" id="G" fill="#BA55D3" fill-rule="nonzero"></path>
    </g>
</svg>