<svg xmlns="http://www.w3.org/2000/svg" xmlns:xlink="http://www.w3.org/1999/xlink" version="1.1" x="0px" y="0px" viewBox="0 0 65 81.25" style="enable-background:new 0 0 65 65;" fill="#ff4000" xml:space="preserve"><g><g><g><path d="M53.8,13.6c1.1-1.5,0.8-3.7-0.7-4.9c-1.5-1.1-3.7-0.8-4.9,0.7L36.6,26.3c0,0,0,0.1-0.1,0.1h-8.1c0,0,0,0,0-0.1L16.9,9.6     c-1.1-1.5-3.3-1.9-4.9-0.7c-1.5,1.1-1.8,3.3-0.7,4.8l11.4,16.6c0.3,0.7,1,4.8,1.6,9.1l-2.5-2c-2.2-1.7-5.6-0.7-6.3,2.1l-5,19.3     c-0.5,2.1,0.7,4.3,2.8,4.8c2.2,0.5,4.3-0.8,4.8-2.8l3.5-13.7c4.3,2.2,4.2,2.3,4.7,2.3c12.8,0,12.3,0.1,12.7-0.1l4-2.1l3.4,13.6     c0.5,2.1,2.7,3.4,4.8,2.8c2.1-0.6,3.4-2.7,2.8-4.8l-4.9-19.3c-0.7-2.8-4.1-3.9-6.3-2.1l-2.5,2c0.7-4.3,1.4-8.4,1.6-9.1L53.8,13.6     z"/></g><g><path d="M26.3,17.5c0,3.4,2.8,6.2,6.2,6.2c3.4,0,6.2-2.8,6.2-6.2c0-3.4-2.8-6.2-6.2-6.2C29.1,11.3,26.3,14.1,26.3,17.5z"/></g><g><path d="M7.5,2.1c0-0.6-0.4-1-1-1h-5c-0.5,0-1,0.4-1,1v13.8c0,0.6,0.5,1,1,1h5c0.6,0,1-0.4,1-1V10h1.5c0.2-0.8,0.6-1.4,1.2-2H7.5     V2.1z"/></g><g><path d="M19.6,10c15.3,0,10.8,0,25.8,0c1-1.5,1.1-1.6,1.4-2H18.2C18.5,8.4,18.7,8.7,19.6,10z"/></g><g><path d="M63.5,1.1h-5c-0.5,0-1,0.4-1,1V8h-2.3c0.5,0.6,0.8,1.3,1,2h1.3v5.9c0,0.6,0.5,1,1,1h5c0.5,0,1-0.4,1-1V2.1     C64.5,1.6,64,1.1,63.5,1.1z"/></g></g></g></svg>