<svg xmlns="http://www.w3.org/2000/svg" xmlns:xlink="http://www.w3.org/1999/xlink" version="1.1" x="0px" y="0px" viewBox="0 0 100 125" fill="#00ffc3" style="enable-background:new 0 0 100 100;" xml:space="preserve"><style type="text/css">
	.st0{fill-rule:evenodd;clip-rule:evenodd;}
</style><path class="st0" d="M51.9,71c0-5.3,2.7-9.9,6.8-12.6c-0.3,6-2.7,11.5-6.5,15.6C52,73,51.9,72,51.9,71z M66.9,95.6  c-13.6,0-24.6-11-24.6-24.6c0-11.7,8.2-21.5,19.2-24c0,0.2-0.1,0.5-0.1,0.8v5.5c0,0.8,0.2,1.5,0.4,2.2c-6.6,2.1-11.4,8.3-11.4,15.6  c0,9.1,7.3,16.4,16.4,16.4S83.3,80.1,83.3,71c0-7.3-4.8-13.5-11.4-15.6c0.3-0.7,0.4-1.4,0.4-2.2v-5.5c0-0.3,0-0.5-0.1-0.8  c11,2.5,19.2,12.3,19.2,24C91.5,84.6,80.5,95.6,66.9,95.6z M66.9,57.3c-2.3,0-4.1-1.8-4.1-4.1v-5.5c0-1.2,0.5-2.3,1.4-3V19.1h5.5  v25.7c0.8,0.8,1.4,1.8,1.4,3v5.5C71,55.5,69.2,57.3,66.9,57.3z M39.1,41.7c0.3-0.7,0.4-1.4,0.4-2.2v-5.5c0-0.3,0-0.5-0.1-0.8  c7.6,1.7,13.9,6.9,17,13.9c-2.6,1.1-5,2.7-7,4.5C47.8,47,43.9,43.3,39.1,41.7z M34.1,43.7c-2.3,0-4.1-1.8-4.1-4.1v-5.5  c0-1.2,0.5-2.3,1.4-3V5.4h5.5v25.7c0.8,0.8,1.4,1.8,1.4,3v5.5C38.2,41.8,36.4,43.7,34.1,43.7z M17.7,57.3c0,9.1,7.3,16.4,16.4,16.4  c2.5,0,4.8-0.5,6.9-1.5c0.1,2.9,0.7,5.6,1.7,8.2c-2.7,1-5.6,1.5-8.6,1.5c-13.6,0-24.6-11-24.6-24.6c0-11.7,8.2-21.5,19.2-24  c0,0.2-0.1,0.5-0.1,0.8v5.5c0,0.8,0.2,1.5,0.4,2.2C22.5,43.8,17.7,50,17.7,57.3z"/></svg>