<svg xmlns="http://www.w3.org/2000/svg" xmlns:xlink="http://www.w3.org/1999/xlink" version="1.1" x="0px" y="0px" viewBox="0 0 100 125" enable-background="new 0 0 100 100" xml:space="preserve"><path d="M78.439,16.167c-1.082-0.625-2.324-0.625-3.406,0L21.325,47.203c-1.083,0.625-1.726,1.781-1.726,3.031  c0,1.25,0.679,2.406,1.762,3.031l53.761,31.035c0.541,0.313,1.148,0.469,1.753,0.469s1.022-0.156,1.563-0.469  C79.52,83.676,80,82.52,80,81.27V19.199C80,17.948,79.522,16.793,78.439,16.167z M73,75.207L29.745,50.234L73,25.261V75.207z"/><text x="0" y="115" fill="#000000" font-size="5px" font-weight="bold" font-family="'Helvetica Neue', Helvetica, Arial-Unicode, Arial, Sans-serif">Created by Perametade Games</text><text x="0" y="120" fill="#000000" font-size="5px" font-weight="bold" font-family="'Helvetica Neue', Helvetica, Arial-Unicode, Arial, Sans-serif">from the Noun Project</text></svg>