<?xml version="1.0" encoding="UTF-8"?>
<svg width="253px" height="73px" viewBox="0 0 253 73" version="1.1" xmlns="http://www.w3.org/2000/svg" xmlns:xlink="http://www.w3.org/1999/xlink">
    <title>IronFytLogo</title>
    <g id="Logo" stroke="none" stroke-width="1" fill="none" fill-rule="evenodd">
        <g id="logo-without-border-roboto-medium---final" transform="translate(-69.000000, -392.000000)">
            <g id="IronFytLogo" transform="translate(63.000000, 376.000000)">
                <path d="M14.2822266,72 L14.2822266,16.546875 L6.96972656,16.546875 L6.96972656,72 L14.2822266,72 Z M33.5917969,72 L33.5917969,42.75 C35.2421875,38.8144531 38.3779297,36.8466797 42.9990234,36.8466797 C44.2431641,36.8466797 45.3984375,36.9355469 46.4648438,37.1132812 L46.4648438,37.1132812 L46.4648438,30.5625 C45.7539062,30.2070312 44.7128906,30.0292969 43.3417969,30.0292969 C39.1015625,30.0292969 35.8261719,31.8701172 33.515625,35.5517578 L33.515625,35.5517578 L33.4013672,30.7910156 L26.5458984,30.7910156 L26.5458984,72 L33.5917969,72 Z M69.0878906,72.7617188 C72.7949219,72.7617188 76.0766602,71.8730469 78.9331055,70.0957031 C81.7895508,68.3183594 83.9858398,65.8364258 85.5219727,62.6499023 C87.0581055,59.4633789 87.8261719,55.8642578 87.8261719,51.8525391 L87.8261719,51.8525391 L87.8261719,51.3574219 C87.8261719,44.9082031 86.0932617,39.7412109 82.6274414,35.8564453 C79.1616211,31.9716797 74.6230469,30.0292969 69.0117188,30.0292969 C65.3808594,30.0292969 62.1499023,30.9052734 59.3188477,32.6572266 C56.487793,34.4091797 54.2788086,36.8974609 52.6918945,40.1220703 C51.1049805,43.3466797 50.3115234,46.9775391 50.3115234,51.0146484 L50.3115234,51.0146484 L50.3115234,51.5097656 C50.3115234,57.9082031 52.0444336,63.0498047 55.5102539,66.9345703 C58.9760742,70.8193359 63.5019531,72.7617188 69.0878906,72.7617188 Z M69.0878906,67.0107422 C65.5332031,67.0107422 62.6958008,65.6269531 60.5756836,62.859375 C58.4555664,60.0917969 57.3955078,56.4228516 57.3955078,51.8525391 C57.3955078,46.6982422 58.4619141,42.7373047 60.5947266,39.9697266 C62.7275391,37.2021484 65.5332031,35.8183594 69.0117188,35.8183594 C72.5664062,35.8183594 75.4165039,37.2211914 77.5620117,40.0268555 C79.7075195,42.8325195 80.7802734,46.4951172 80.7802734,51.0146484 C80.7802734,56.0673828 79.7265625,59.996582 77.6191406,62.8022461 C75.5117188,65.6079102 72.6679688,67.0107422 69.0878906,67.0107422 Z M103.708008,72 L103.708008,42.6357422 C104.672852,40.6552734 106.018555,39.0556641 107.745117,37.8369141 C109.47168,36.6181641 111.477539,36.0087891 113.762695,36.0087891 C116.581055,36.0087891 118.656738,36.7197266 119.989746,38.1416016 C121.322754,39.5634766 122.001953,41.7597656 122.027344,44.7304688 L122.027344,44.7304688 L122.027344,72 L129.073242,72 L129.073242,44.7685547 C128.99707,34.9423828 124.604492,30.0292969 115.895508,30.0292969 C110.817383,30.0292969 106.704102,32.0097656 103.555664,35.9707031 L103.555664,35.9707031 L103.327148,30.7910156 L96.6621094,30.7910156 L96.6621094,72 L103.708008,72 Z M148.116211,72 L148.116211,47.5107422 L171.386719,47.5107422 L171.386719,41.53125 L148.116211,41.53125 L148.116211,22.5644531 L175.157227,22.5644531 L175.157227,16.546875 L140.803711,16.546875 L140.803711,72 L148.116211,72 Z M183.726562,88.6435547 C189.3125,88.6435547 193.387695,85.2158203 195.952148,78.3603516 L195.952148,78.3603516 L212.519531,30.7910156 L204.978516,30.7910156 L195.380859,61.6787109 L185.097656,30.7910156 L177.404297,30.7910156 L192.105469,71.5429688 L190.543945,75.7324219 C189.680664,78.296875 188.58252,80.0615234 187.249512,81.0263672 C185.916504,81.9912109 184.056641,82.4736328 181.669922,82.4736328 L181.669922,82.4736328 L179.765625,82.3212891 L179.765625,88.0341797 L182.393555,88.5292969 L183.726562,88.6435547 Z M230.838867,72.7617188 C232.59082,72.7617188 234.393555,72.5078125 236.24707,72 L236.24707,72 L236.24707,66.2871094 C234.825195,66.5917969 233.708008,66.7441406 232.895508,66.7441406 C231.245117,66.7441406 230.077148,66.331543 229.391602,65.5063477 C228.706055,64.6811523 228.363281,63.4433594 228.363281,61.7929688 L228.363281,61.7929688 L228.363281,36.2373047 L236.056641,36.2373047 L236.056641,30.7910156 L228.363281,30.7910156 L228.363281,20.8125 L221.317383,20.8125 L221.317383,30.7910156 L213.814453,30.7910156 L213.814453,36.2373047 L221.317383,36.2373047 L221.317383,61.7929688 C221.317383,65.296875 222.117188,68.0009766 223.716797,69.9052734 C225.316406,71.8095703 227.69043,72.7617188 230.838867,72.7617188 Z" id="IronFyt" fill="#FF8C00" fill-rule="nonzero"></path>
                <g id="indicators" transform="translate(245.000000, 17.000000)">
                    <circle id="modality-weights-indicator" fill="#FF4000" cx="7" cy="49" r="7"></circle>
                    <circle id="modality-body-weight-indicator" fill="#00FFC3" cx="7" cy="28" r="7"></circle>
                    <circle id="modality-cardio-indicator" fill="#EA00FF" cx="7" cy="7" r="7"></circle>
                </g>
            </g>
        </g>
    </g>
</svg>