<?xml version="1.0" encoding="UTF-8"?>
<svg width="25px" height="25px" viewBox="0 0 25 25" version="1.1" xmlns="http://www.w3.org/2000/svg" xmlns:xlink="http://www.w3.org/1999/xlink">
    <title>icon-pr-25x25-orange</title>
    <g id="icon-pr-25x25-orange" stroke="none" stroke-width="1" fill="none" fill-rule="evenodd">
        <path d="M20,1 L20,9 L19.983559,9.00058855 C19.7259782,12.9093262 16.4739219,16 12.5,16 C8.5260781,16 5.27402176,12.9093262 5.01644104,9.00058855 L5,9 L5,1 L20,1 Z" id="Combined-Shape" fill="#FF8C00"></path>
        <rect id="Rectangle" fill="#FF8C00" x="5" y="20" width="15" height="4"></rect>
        <rect id="Rectangle-Copy" fill="#FF8C00" transform="translate(12.500000, 19.500000) rotate(90.000000) translate(-12.500000, -19.500000) " x="8.5" y="17" width="8" height="5"></rect>
        <ellipse id="Oval" stroke="#FF8C00" stroke-width="2" cx="20" cy="6.5" rx="2" ry="2.5"></ellipse>
        <ellipse id="Oval-Copy" stroke="#FF8C00" stroke-width="2" cx="5" cy="6.5" rx="2" ry="2.5"></ellipse>
        <polygon id="Star" fill="#C5F04E" points="12.5 9.75 9.85496636 11.1405765 10.3601228 8.19528824 8.22024568 6.10942353 11.1774832 5.67971176 12.5 3 13.8225168 5.67971176 16.7797543 6.10942353 14.6398772 8.19528824 15.1450336 11.1405765"></polygon>
    </g>
</svg>