<?xml version="1.0" encoding="UTF-8"?>
<svg width="25px" height="25px" viewBox="0 0 25 25" version="1.1" xmlns="http://www.w3.org/2000/svg" xmlns:xlink="http://www.w3.org/1999/xlink">
    <title>icon-chevron-right-25x25-orange</title>
    <g id="icon-chevron-right-25x25-orange" stroke="none" stroke-width="1" fill="none" fill-rule="evenodd">
        <path d="M9.99898838,2.2898893 C10.0010038,2.29188767 10.0030108,2.29389461 10.0050092,2.29591007 L19.3284098,11.6990364 C19.7139799,12.0879036 19.7149264,12.7143076 19.3312495,13.104341 C19.287549,13.1904025 19.2295056,13.270231 19.1583706,13.3419744 L9.83496997,22.7451007 C9.44611181,23.1372841 8.81295257,23.1399797 8.42076923,22.7511215 L8.41474845,22.7451007 L8.28988924,22.6191738 C7.90337025,22.2293497 7.90337025,21.600818 8.28988924,21.2109939 L16.991,12.434 L8.45992842,3.83001695 C8.07340944,3.44019278 8.07340944,2.81166114 8.45992842,2.42183697 L8.58478764,2.29591007 C8.9736458,1.90372673 9.60680504,1.90103113 9.99898838,2.2898893 Z" id="Combined-Shape" fill="#FF8C00"></path>
    </g>
</svg>