<?xml version="1.0" encoding="UTF-8"?>
<svg width="25px" height="25px" viewBox="0 0 25 25" version="1.1" xmlns="http://www.w3.org/2000/svg" xmlns:xlink="http://www.w3.org/1999/xlink">
    <title>icon-barbell-25x25-orange</title>
    <g id="icon-barbell-25x25-orange" stroke="none" stroke-width="1" fill="none" fill-rule="evenodd">
        <path d="M7,17 C7.55228475,17 8,18.5670034 8,20.5 C8,22.4329966 7.55228475,24 7,24 C6.81769241,24 6.64677915,23.8292529 6.49960271,23.5309575 C6.35322085,23.8292529 6.18230759,24 6,24 C5.81769241,24 5.64677915,23.8292529 5.49960271,23.5309575 C5.35322085,23.8292529 5.18230759,24 5,24 C4.44771525,24 4,22.4329966 4,20.5 C4,18.5670034 4.44771525,17 5,17 C5.18230759,17 5.35322085,17.1707471 5.50039729,17.4690425 C5.64677915,17.1707471 5.81769241,17 6,17 C6.18230759,17 6.35322085,17.1707471 6.50039729,17.4690425 C6.64677915,17.1707471 6.81769241,17 7,17 Z" id="Combined-Shape" fill="#FF8C00"></path>
        <path d="M20,17 C20.5522847,17 21,18.5670034 21,20.5 C21,22.4329966 20.5522847,24 20,24 C19.8176924,24 19.6467791,23.8292529 19.4996027,23.5309575 C19.3532209,23.8292529 19.1823076,24 19,24 C18.8176924,24 18.6467791,23.8292529 18.4996027,23.5309575 C18.3532209,23.8292529 18.1823076,24 18,24 C17.4477153,24 17,22.4329966 17,20.5 C17,18.5670034 17.4477153,17 18,17 C18.1823076,17 18.3532209,17.1707471 18.5003973,17.4690425 C18.6467791,17.1707471 18.8176924,17 19,17 C19.1823076,17 19.3532209,17.1707471 19.5003973,17.4690425 C19.6467791,17.1707471 19.8176924,17 20,17 Z" id="Combined-Shape-Copy" fill="#FF8C00"></path>
        <rect id="Rectangle" fill="#FF8C00" x="7" y="20" width="11" height="1"></rect>
        <rect id="Rectangle-Copy" fill="#FF8C00" x="20" y="20" width="4" height="1"></rect>
        <rect id="Rectangle-Copy-2" fill="#FF8C00" x="1" y="20" width="4" height="1"></rect>
    </g>
</svg>